<svg xmlns="http://www.w3.org/2000/svg" width="24" height="24" viewBox="0 0 24 24">
  <path id="Path_8968" data-name="Path 8968" d="M10.091,3A7.1,7.1,0,0,0,3,10.091v9.818A7.1,7.1,0,0,0,10.091,27h9.818A7.1,7.1,0,0,0,27,19.909V10.091A7.1,7.1,0,0,0,19.909,3Zm0,1.091h9.818a5.992,5.992,0,0,1,6,6v9.818a5.992,5.992,0,0,1-6,6H10.091a5.992,5.992,0,0,1-6-6V10.091A5.992,5.992,0,0,1,10.091,4.091ZM21.545,7.364a1.091,1.091,0,1,0,1.091,1.091A1.091,1.091,0,0,0,21.545,7.364ZM15,9a6,6,0,1,0,6,6A6.008,6.008,0,0,0,15,9Zm0,1.091A4.909,4.909,0,1,1,10.091,15,4.9,4.9,0,0,1,15,10.091Z" transform="translate(-3 -3)" fill="gray"/>
</svg>
