<svg xmlns="http://www.w3.org/2000/svg" width="24" height="24" viewBox="0 0 24 24">
  <path id="Path_8970" data-name="Path 8970" d="M6.857,4A2.866,2.866,0,0,0,4,6.857V25.143A2.866,2.866,0,0,0,6.857,28H25.143A2.866,2.866,0,0,0,28,25.143V6.857A2.866,2.866,0,0,0,25.143,4Zm0,1.143H25.143a1.706,1.706,0,0,1,1.714,1.714V25.143a1.706,1.706,0,0,1-1.714,1.714H6.857a1.706,1.706,0,0,1-1.714-1.714V6.857A1.706,1.706,0,0,1,6.857,5.143Zm8.227,5.71a3.593,3.593,0,0,0-1.625.269h0a1.444,1.444,0,0,0-.532.438.723.723,0,0,0-.17.365.61.61,0,0,0,.076.435.668.668,0,0,0,.448.291.984.984,0,0,1,.323.128v0a2.021,2.021,0,0,1,.1.4,2.934,2.934,0,0,1,.022.343q0,.023,0,.046s.033.5.011,1.008a4.357,4.357,0,0,1-.062.548,8.315,8.315,0,0,1-.936-1.382c-.48-.833-.863-1.579-.863-1.579a.93.93,0,0,0-.368-.471,1.374,1.374,0,0,0-.6-.257.571.571,0,0,0-.112-.011H8.552a1.7,1.7,0,0,0-.3.015.876.876,0,0,0-.641.319h0a.829.829,0,0,0-.172.685,1.123,1.123,0,0,0,.083.276l0,.007a30.4,30.4,0,0,0,3.924,6.154A5.152,5.152,0,0,0,15.8,20.57h.955a1.284,1.284,0,0,0,.709-.152.94.94,0,0,0,.408-.729,1.481,1.481,0,0,1,.084-.551.208.208,0,0,1,.1-.118l.027.019a3.119,3.119,0,0,1,.423.41,7.35,7.35,0,0,0,1.25,1.26,2.423,2.423,0,0,0,.993.412,1.623,1.623,0,0,0,.391.013l2.134.009h.038a1.576,1.576,0,0,0,.75-.224,1.052,1.052,0,0,0,.49-.647,1.278,1.278,0,0,0-.2-.943h0a1.181,1.181,0,0,0-.089-.154,4.717,4.717,0,0,0-.277-.4,11.659,11.659,0,0,0-1.32-1.411h0a7.064,7.064,0,0,1-.653-.654c-.093-.122-.062-.058-.056-.089a19.952,19.952,0,0,1,1.231-1.732,14.9,14.9,0,0,0,1.075-1.577,1.574,1.574,0,0,0,.28-1.213v0a.865.865,0,0,0-.335-.468,1.04,1.04,0,0,0-.4-.158,3.208,3.208,0,0,0-.654-.039c-.414,0-2.252.015-2.4.015a1.5,1.5,0,0,0-.6.16,1,1,0,0,0-.423.458l-.017.033s-.379.841-.867,1.671a5.582,5.582,0,0,1-1.08,1.43.211.211,0,0,1-.009-.052c-.02-.235,0-.56,0-.877,0-.854.072-1.452.033-1.98a1.518,1.518,0,0,0-.242-.787,1.281,1.281,0,0,0-.749-.482,3.105,3.105,0,0,0-1.075-.156h0C15.493,10.857,15.285,10.853,15.084,10.853ZM15.7,12a1.837,1.837,0,0,1,.818.125c.108.026.082.026.079.022a.69.69,0,0,1,.041.22c.024.329-.037.983-.037,1.9,0,.249-.03.6,0,.973a1.386,1.386,0,0,0,.565,1.131.834.834,0,0,0,.661.093,1.548,1.548,0,0,0,.595-.318,6.457,6.457,0,0,0,1.394-1.8c.519-.883.9-1.724.91-1.752l.008-.006h.009c.213,0,2.017-.015,2.4-.015.09,0,.123.005.194.008-.019.065,0,.023-.083.176a14.476,14.476,0,0,1-.99,1.445c-.8,1.064-1.29,1.48-1.435,2.186a1.32,1.32,0,0,0,.263,1.009,6.6,6.6,0,0,0,.787.8,10.576,10.576,0,0,1,1.192,1.269,3.626,3.626,0,0,1,.211.3c.041.067.031.06.084.147.035.058.022.023.028.04L23.24,20l-2.1-.009a.571.571,0,0,0-.113.011s.005.006-.107-.011a1.249,1.249,0,0,1-.521-.224,8.463,8.463,0,0,1-1.047-1.081,3.7,3.7,0,0,0-.616-.581,1.112,1.112,0,0,0-.97-.2,1.435,1.435,0,0,0-.854.765,2.124,2.124,0,0,0-.138.761.1.1,0,0,1-.021,0H15.8a3.75,3.75,0,0,1-3.5-1.312,27.979,27.979,0,0,1-3.557-5.542h1.982c.035.013.109.041.114.045l0,0c-.072-.053,0,.021,0,.021q.01.026.023.05s.393.767.89,1.628a8.709,8.709,0,0,0,1.185,1.72,1.461,1.461,0,0,0,.576.393.975.975,0,0,0,.731-.06,1.075,1.075,0,0,0,.532-.846,4.99,4.99,0,0,0,.106-.9,10.677,10.677,0,0,0-.012-1.1,3.856,3.856,0,0,0-.03-.483,1.827,1.827,0,0,0-.317-.939h0l-.006,0A6.255,6.255,0,0,1,15.7,12Zm5.041.56-.008.018h0Z" transform="translate(-4 -4)" fill="gray"/>
</svg>
