<svg id="Group_293" data-name="Group 293" xmlns="http://www.w3.org/2000/svg" width="22" height="22" viewBox="0 0 22 22">
  <path id="Path_8983" data-name="Path 8983" d="M11,0A11,11,0,1,0,22,11,11.012,11.012,0,0,0,11,0Zm0,20.114A9.114,9.114,0,1,1,20.114,11,9.125,9.125,0,0,1,11,20.114Z" fill="#f30d31"/>
  <path id="Path_8984" data-name="Path 8984" d="M60.188,51.508a.962.962,0,0,0-1.36,0l-2.982,2.983-2.982-2.983a.962.962,0,0,0-1.36,1.36l2.982,2.983L51.5,58.834a.962.962,0,1,0,1.36,1.36l2.982-2.983,2.982,2.983a.962.962,0,1,0,1.36-1.36l-2.982-2.983,2.982-2.983A.962.962,0,0,0,60.188,51.508Z" transform="translate(-44.846 -44.85)" fill="#f30d31"/>
</svg>
