<svg xmlns="http://www.w3.org/2000/svg" width="28.235" height="28.235" viewBox="0 0 28.235 28.235">
  <path id="Path_8981" data-name="Path 8981" d="M24.1,4.13a14.124,14.124,0,1,0,0,19.975A14.14,14.14,0,0,0,24.1,4.13ZM19.687,19.687a1.086,1.086,0,0,1-1.536,0l-4.034-4.034L9.892,19.879a1.086,1.086,0,0,1-1.536-1.536l4.225-4.225L8.548,10.084a1.086,1.086,0,0,1,1.536-1.536l4.033,4.034L17.959,8.74a1.086,1.086,0,1,1,1.536,1.536l-3.841,3.841,4.034,4.034A1.086,1.086,0,0,1,19.687,19.687Z" transform="translate(0 0)" fill="#fff"/>
</svg>
