<svg xmlns="http://www.w3.org/2000/svg" width="19.961" height="20.208" viewBox="0 0 19.961 20.208">
  <g id="exit" transform="translate(-5.6 -5)">
    <path id="Path_8976" data-name="Path 8976" d="M7.868,15.1A7.843,7.843,0,0,1,15.7,7.268V5a10.1,10.1,0,0,0,0,20.208V22.94A7.843,7.843,0,0,1,7.868,15.1Z" fill="#fff"/>
    <path id="Path_8977" data-name="Path 8977" d="M52.159,29.334,46.591,23.72a1.238,1.238,0,0,0-1.751,1.751l2.6,2.649H41.135a1.235,1.235,0,1,0,0,2.47h6.287l-2.6,2.6a1.238,1.238,0,0,0,1.751,1.751l5.568-5.591v-.022Z" transform="translate(-26.599 -14.23)" fill="#fff"/>
  </g>
</svg>
