<svg xmlns="http://www.w3.org/2000/svg" width="11.376" height="11.376" viewBox="0 0 11.376 11.376">
  <path id="data_image_svg_xml_" data-name="data_image_svg+xml;…" d="M12.188,17.876A5.688,5.688,0,1,0,6.5,12.188,5.684,5.684,0,0,0,12.188,17.876Zm.706-9.611a1.085,1.085,0,1,1-1.085,1.085A1.1,1.1,0,0,1,12.894,8.265ZM11.273,11.9c-.157-.157-.366-.131-.588.013a.262.262,0,0,1-.34-.052.248.248,0,0,1,.052-.34,2.375,2.375,0,0,1,1.674-.471A1.2,1.2,0,0,1,13.221,12.2a1.509,1.509,0,0,1-.118.575l-.955,1.9a.471.471,0,0,0,0,.575c.157.157.366.131.588-.013a.262.262,0,0,1,.34.052.248.248,0,0,1-.052.34,2.375,2.375,0,0,1-1.674.471A1.2,1.2,0,0,1,10.2,14.947a1.509,1.509,0,0,1,.118-.575l.955-1.9A.49.49,0,0,0,11.273,11.9Z" transform="translate(-6.5 -6.5)" fill="#fff"/>
</svg>
