<svg xmlns="http://www.w3.org/2000/svg" width="117.195" height="84" viewBox="0 0 117.195 84">
  <path id="Path_8980" data-name="Path 8980" d="M87.742,110.1v-9.447c0-21.247,32.331-21.247,32.331,0V110.1c3.158,0,5.881,1.61,5.881,5.1v1.711c0,27.426-44.094,27.426-44.094,0V115.2C81.861,111.716,84.584,110.1,87.742,110.1ZM23.94,53.48h78.136a15.227,15.227,0,0,1,15.184,15.184V86.691c-8.342-7.544-23.433-6.368-29.667,3.521H13.539v26.305a10.432,10.432,0,0,0,10.4,10.4H80.926A21.081,21.081,0,0,0,83.9,131.7H23.944A15.227,15.227,0,0,1,8.76,116.517V68.664A15.224,15.224,0,0,1,23.944,53.48Zm-10.4,17.255h98.938V68.664a10.429,10.429,0,0,0-10.4-10.4H23.94a10.429,10.429,0,0,0-10.4,10.4v2.071Zm98.938,36.4V99.815c.022.275.033.553.033.839v6.479Zm-5.688,10.839a3.968,3.968,0,0,1-1.725,6.486v2.672a1.154,1.154,0,0,1-2.308,0v-2.679a3.951,3.951,0,1,1,4.037-6.483ZM92.332,110.1H115.48v-9.447c0-15.31-23.147-15.31-23.147,0Z" transform="translate(-8.76 -53.48)" fill="gray" fill-rule="evenodd"/>
</svg>
