<svg xmlns="http://www.w3.org/2000/svg" width="128.22" height="41.649" viewBox="0 0 128.22 41.649">
  <g id="Group_183" data-name="Group 183" transform="translate(0.001 0)">
    <path id="Path_8971" data-name="Path 8971" d="M171.477,32.944l-7.843,18.693H158.5L154.649,36.7a2.121,2.121,0,0,0-1.134-1.625,19.441,19.441,0,0,0-4.785-1.58l.124-.546h8.238a2.255,2.255,0,0,1,2.218,1.924l2.02,10.8,5.051-12.724h5.129Zm20.08,12.577c0-4.932-6.8-5.225-6.754-7.4,0-.689.643-1.378,2.071-1.58a9.216,9.216,0,0,1,4.775.831l.827-3.935a12.613,12.613,0,0,0-4.537-.84c-4.785,0-8.137,2.562-8.187,6.167-.051,2.714,2.415,4.192,4.243,5.078s2.516,1.529,2.516,2.3c0,1.235-1.529,1.837-2.911,1.837a9.923,9.923,0,0,1-4.982-1.185l-.886,4.091a13.738,13.738,0,0,0,5.377.987c5.078.051,8.384-2.466,8.435-6.364m12.627,6.116h4.486l-3.894-18.693H200.63a2.2,2.2,0,0,0-2.071,1.378l-7.3,17.311h5.074l.987-2.81h6.213Zm-5.423-6.594,2.562-7,1.479,7h-4.045ZM178.379,32.944l-3.995,18.693h-4.83l3.995-18.693Z" transform="translate(-80.438 -21.236)" fill="#1a1f71"/>
    <path id="_Compound_Path_" data-name=" Compound Path " d="M12.911,90.7V87.948a1.6,1.6,0,0,0-1.7-1.745,1.809,1.809,0,0,0-1.561.781A1.607,1.607,0,0,0,8.181,86.2a1.561,1.561,0,0,0-1.332.643v-.551H6V90.7h.872V88.177a1.029,1.029,0,0,1,1.1-1.148c.643,0,1.01.413,1.01,1.148V90.7h.872V88.177a1.029,1.029,0,0,1,1.1-1.148c.643,0,1.01.413,1.01,1.148V90.7h.964Zm14.326-4.362H25.63V85.009h-.872v1.332h-.918v.781h.918v2.066c0,1.01.367,1.607,1.469,1.607a2.567,2.567,0,0,0,1.194-.321l-.275-.781a1.511,1.511,0,0,1-.827.23.643.643,0,0,1-.689-.735V87.052h1.607v-.735ZM35.41,86.2a1.378,1.378,0,0,0-1.194.643v-.551h-.872V90.7h.872v-2.48c0-.735.367-1.194.964-1.194a2.687,2.687,0,0,1,.6.092l.276-.826a3.1,3.1,0,0,0-.643-.092Zm-12.352.459a3.15,3.15,0,0,0-1.791-.459c-1.1,0-1.791.505-1.791,1.378,0,.735.505,1.148,1.469,1.286l.459.046c.505.092.827.276.827.505,0,.321-.367.551-1.056.551a2.42,2.42,0,0,1-1.469-.459l-.459.689a3.324,3.324,0,0,0,1.906.528c1.286,0,1.974-.6,1.974-1.423s-.551-1.148-1.515-1.286l-.459-.046c-.413-.046-.781-.184-.781-.459s.367-.551.872-.551a3.311,3.311,0,0,1,1.378.367ZM36.42,88.5a2.167,2.167,0,0,0,2.3,2.3,2.3,2.3,0,0,0,1.561-.505l-.459-.689a1.837,1.837,0,0,1-1.148.413,1.474,1.474,0,0,1,0-2.939,1.837,1.837,0,0,1,1.148.413l.459-.689a2.3,2.3,0,0,0-1.561-.505,2.057,2.057,0,0,0-2.3,2.2Zm-6.2-2.3a2.112,2.112,0,0,0-2.158,2.3,2.158,2.158,0,0,0,2.016,2.3h.257a2.81,2.81,0,0,0,1.791-.6l-.459-.643a2.195,2.195,0,0,1-1.286.459,1.29,1.29,0,0,1-1.332-1.148h3.26V88.5A2.1,2.1,0,0,0,30.221,86.2Zm0,.827a1.1,1.1,0,0,1,1.148,1.047s0,.037,0,.055H28.982a1.18,1.18,0,0,1,1.24-1.1ZM18.329,88.5v-2.2h-.849v.551a1.69,1.69,0,0,0-1.423-.643,2.3,2.3,0,0,0,0,4.592,1.69,1.69,0,0,0,1.423-.643V90.7h.872V88.5Zm-3.582,0a1.378,1.378,0,1,1,1.378,1.469A1.35,1.35,0,0,1,14.747,88.5ZM48.68,86.2a1.378,1.378,0,0,0-1.194.643v-.551h-.872V90.7h.872v-2.48c0-.735.367-1.194.964-1.194a2.687,2.687,0,0,1,.6.092l.276-.826a3.1,3.1,0,0,0-.62-.092Zm7.071,3.857a.276.276,0,0,1,.184.046.422.422,0,0,1,.23.23,1.043,1.043,0,0,1,.046.184.275.275,0,0,1-.046.184c-.046.046-.046.092-.092.138a.243.243,0,0,1-.138.092,1.041,1.041,0,0,1-.184.046.276.276,0,0,1-.184-.046c-.046-.046-.092-.046-.138-.092a.243.243,0,0,1-.092-.138,1.043,1.043,0,0,1-.046-.184.276.276,0,0,1,.046-.184c.046-.046.046-.092.092-.138a.243.243,0,0,1,.138-.092c.046,0,.138-.046.184-.046Zm0,.781a.17.17,0,0,0,.138-.046.1.1,0,0,0,.092-.092l.092-.092c0-.046.046-.092.046-.138a.17.17,0,0,0-.046-.138.1.1,0,0,0-.092-.092l-.092-.092c-.046,0-.092-.046-.138-.046a.17.17,0,0,0-.138.046.1.1,0,0,0-.092.092l-.092.092c0,.046-.046.092-.046.138a.17.17,0,0,0,.046.138.1.1,0,0,0,.092.092l.092.092A.17.17,0,0,0,55.751,90.841Zm.046-.505a.17.17,0,0,1,.138.046.115.115,0,0,1,0,.184.161.161,0,0,1-.092.046l.138.138h-.138l-.138-.138h-.046v.115h-.069v-.413h.23Zm-.092.046v.092h.138v-.092ZM45.282,88.5v-2.2H44.41v.551a1.69,1.69,0,0,0-1.423-.643,2.3,2.3,0,0,0,0,4.592,1.69,1.69,0,0,0,1.423-.643V90.7h.872V88.5Zm-3.536,0a1.378,1.378,0,1,1,1.378,1.469A1.339,1.339,0,0,1,41.747,88.5Zm12.444,0V84.55h-.872v2.3a1.69,1.69,0,0,0-1.423-.643,2.3,2.3,0,1,0,0,4.592,1.69,1.69,0,0,0,1.423-.643V90.7h.9V88.5Zm-3.582,0a1.378,1.378,0,1,1,1.378,1.469A1.35,1.35,0,0,1,50.609,88.5Z" transform="translate(-3.246 -49.332)"/>
    <g id="_Group_" data-name=" Group " transform="translate(-0.001 -0.001)">
      <rect id="Rectangle_30" data-name="Rectangle 30" width="15.933" height="25.989" transform="translate(18.804 3.536)" fill="#ff5f00"/>
      <path id="_Path_" data-name=" Path " d="M20.456,24.38a16.576,16.576,0,0,1,6.291-12.995,16.53,16.53,0,1,0,0,25.989A16.576,16.576,0,0,1,20.456,24.38Z" transform="translate(0.001 -7.849)" fill="#eb001b"/>
      <path id="Path_8972" data-name="Path 8972" d="M112.671,65.393v-.551h.23V64.75h-.551v.092h.23v.551Zm1.1,0V64.75h-.184l-.184.459-.184-.459h-.184v.643h.138v-.528l.184.413h.138l.184-.413v.505h.092Z" transform="translate(-60.762 -38.623)" fill="#f79e1b"/>
      <path id="Path_8973" data-name="Path 8973" d="M85.074,24.4A16.53,16.53,0,0,1,58.35,37.4a16.567,16.567,0,0,0,0-25.989A16.53,16.53,0,0,1,85.074,24.4Z" transform="translate(-31.557 -7.871)" fill="#f79e1b"/>
    </g>
  </g>
</svg>
