<svg xmlns="http://www.w3.org/2000/svg" width="24" height="24.008" viewBox="0 0 24 24.008">
  <path id="Path_8969" data-name="Path 8969" d="M6.857,4A2.866,2.866,0,0,0,4,6.857V25.143A2.866,2.866,0,0,0,6.857,28h9.618a.571.571,0,0,0,.186,0H19.9a.571.571,0,0,0,.186,0h5.052A2.866,2.866,0,0,0,28,25.143V6.857A2.866,2.866,0,0,0,25.143,4Zm0,1.143H25.143a1.706,1.706,0,0,1,1.714,1.714V25.143a1.706,1.706,0,0,1-1.714,1.714H20.571v-8h2.183l.8-4H20.571V13.714c0-.319.03-.343.137-.413a2.228,2.228,0,0,1,1.006-.158h1.714V9.925L23.1,9.77A7.883,7.883,0,0,0,20,9.143,3.76,3.76,0,0,0,16.982,10.5,5.081,5.081,0,0,0,16,13.714v1.143H14.286v4H16v8H6.857a1.706,1.706,0,0,1-1.714-1.714V6.857A1.706,1.706,0,0,1,6.857,5.143ZM20,10.286a6.013,6.013,0,0,1,2.286.4V12h-.571a2.879,2.879,0,0,0-1.628.343,1.615,1.615,0,0,0-.657,1.372V16H22.16l-.343,1.714H19.429v9.143H17.143V17.714H15.429V16h1.714V13.714a3.988,3.988,0,0,1,.732-2.5A2.521,2.521,0,0,1,20,10.286Z" transform="translate(-4 -4)" fill="gray"/>
</svg>
